<svg xmlns="http://www.w3.org/2000/svg" viewBox="0 0 2942.03 844.48"><defs><style>.cls-1{fill:#fff;}</style></defs><g id="katman_2" data-name="katman 2"><g id="katman_1-2" data-name="katman 1"><path class="cls-1" d="M576.18,0V51.08c-213.31,0-389.68,161.15-413.78,368.09a77.34,77.34,0,0,0-51.21-1.94A467.27,467.27,0,0,1,576.18,0Z"/><rect class="cls-1" x="72.76" y="429.74" width="122.59" height="414.73" rx="61.3"/><path class="cls-1" d="M56.79,527.13v220A60.76,60.76,0,0,1,0,686.47V587.75A60.75,60.75,0,0,1,56.79,527.13Z"/><path class="cls-1" d="M575,0V51.08c213.31,0,389.68,161.15,413.78,368.09a77.34,77.34,0,0,1,51.21-1.94A467.27,467.27,0,0,0,575,0Z"/><rect class="cls-1" x="955.82" y="429.74" width="122.59" height="414.73" rx="61.3" transform="translate(2034.23 1274.22) rotate(180)"/><path class="cls-1" d="M1094.38,527.13v220a60.76,60.76,0,0,0,56.79-60.62V587.75A60.75,60.75,0,0,0,1094.38,527.13Z"/><polygon class="cls-1" points="912.68 642.14 923.09 595.07 923.09 642.38 912.68 689.48 879.62 539.81 803.12 764.76 729.62 540.96 646.98 717 607.75 607.52 545.8 747.23 495.64 577.02 424.23 757.33 353.33 571.88 291.48 688.3 249.17 543.67 228.89 600.27 228.89 570 250.17 510.63 294.24 661.33 354.85 547.24 424.39 729.16 497.06 545.7 547.74 717.66 608.76 580.04 648.26 690.26 731.3 513.34 803.29 732.54 881.71 501.92 912.68 642.14"/><path class="cls-1" d="M1777.56,330.08V674.76H1721V438.69L1615.88,674.76h-39.17L1471.07,438.69V674.76h-56.54V330.08h61l121,270.29,120.52-270.29Z"/><path class="cls-1" d="M1908,330.08v219.7q0,39.19,20.59,59t57.28,19.84q37.19,0,57.77-19.84t20.59-59V330.08h56.53V548.79q0,42.16-18.35,71.42a113.85,113.85,0,0,1-49.1,43.64q-30.75,14.4-67.94,14.38t-67.7-14.38a111.11,111.11,0,0,1-48.35-43.64q-17.85-29.26-17.86-71.42V330.08Z"/><path class="cls-1" d="M2245.23,666.08q-27.78-12.15-43.64-34.46t-15.87-52.08h60.5q2,22.32,17.61,36.7t43.89,14.38q29.25,0,45.63-14.13T2369.71,580q0-17.37-10.16-28.27a68.26,68.26,0,0,0-25.3-16.87q-15.14-5.94-41.9-12.89-33.73-8.93-54.81-18.1a90.55,90.55,0,0,1-35.95-28.52q-14.88-19.33-14.88-51.58,0-29.76,14.88-52.07t41.66-34.22q26.77-11.91,62-11.91,50.09,0,82.08,25.05t35.46,68.69h-62.49q-1.48-18.84-17.85-32.24t-43.15-13.39q-24.32,0-39.68,12.4t-15.37,35.71q0,15.89,9.67,26A68.16,68.16,0,0,0,2278.46,464q14.88,6,40.67,12.9,34.22,9.42,55.79,18.84a93,93,0,0,1,36.7,29q15.12,19.59,15.13,52.32a94,94,0,0,1-14.14,49.59q-14.13,23.33-41.16,37.45t-63.73,14.13Q2273,678.23,2245.23,666.08Z"/><path class="cls-1" d="M2550.23,330.08V674.76h-56.54V330.08Z"/><path class="cls-1" d="M2629.33,410.92a167.74,167.74,0,0,1,64-62.74q40.41-22.56,88.53-22.57,55,0,97.94,27T2942,429.27h-68Q2860.7,402,2836.89,388.6t-55-13.39q-34.23,0-61,15.37t-41.9,44.14q-15.13,28.77-15.13,67t15.13,66.95q15.12,28.77,41.9,44.39t61,15.62q31.24,0,55-13.39t37.19-40.67h68q-19.35,49.6-62.25,76.38t-97.94,26.78q-48.62,0-88.78-22.57a168.14,168.14,0,0,1-63.73-62.74q-23.57-40.17-23.55-90.75T2629.33,410.92Z"/></g></g></svg>